#!OML:ASF F:\VICON\USERDATA\INSTALL\Justin_Nancy\Justin_Nancy.ASF
:FULLY-SPECIFIED
:DEGREES
32
root 1.36345 17.5378 -21.8805 -2.52947 -1.57126 3.67581
lowerback 6.11678 -0.118127 -3.54412
upperback 0.447211 -0.368831 1.02243
thorax -2.9404 -0.132533 3.0803
lowerneck -15.3913 -2.47047 -9.1188
upperneck 19.8719 -2.04347 4.01745
head 8.90963 -1.22354 2.63525
rclavicle 7.33018e-016 1.19271e-014
rhumerus -32.6157 -15.4469 -77.9257
rradius 27.7245
rwrist 11.1544
rhand -11.8651 11.9405
rfingers 7.12502
rthumb 14.187 -17.555
lclavicle 7.33018e-016 1.19271e-014
lhumerus -32.2911 19.0674 79.4489
lradius 21.0014
lwrist -14.0233
lhand -13.8592 26.3297
lfingers 7.12502
lthumb 12.2649 55.9501
rfemur -21.8557 -5.21321 16.9452
rtibia 72.0077
rfoot -0.649746 -4.38594
rtoes 3.09517
lfemur -9.10936 1.46401 -29.0751
ltibia 24.7915
lfoot -10.6811 -2.54265
ltoes 8.33429
33
root 1.36804 17.5099 -21.7509 -2.56242 -1.57837 3.69156
lowerback 6.42059 -0.0982706 -3.47429
upperback 0.439976 -0.348812 1.00251
thorax -3.12027 -0.11984 3.02131
lowerneck -15.2556 -2.6206 -8.94995
upperneck 19.5731 -2.25425 3.79532
head 8.79375 -1.32921 2.50191
rclavicle 8.97016e-015 5.56597e-015
rhumerus -32.7483 -15.8349 -77.7982
rradius 27.5258
rwrist 11.1089
rhand -11.8053 11.6865
rfingers 7.12502
rthumb 14.2446 -17.805
lclavicle 8.97016e-015 5.56597e-015
lhumerus -31.8783 18.591 79.5882
lradius 21.4687
lwrist -14.2605
lhand -12.0502 27.4393
lfingers 7.12502
lthumb 14.0086 56.9473
rfemur -23.0849 -5.26147 16.9213
rtibia 71.7292
rfoot -1.7165 -3.93348
rtoes 1.72987
lfemur -8.86408 1.54532 -29.1467
ltibia 25.2724
lfoot -11.4095 -2.33882
ltoes 7.8098
34
root 1.37101 17.4864 -21.6133 -2.56963 -1.54656 3.8881
lowerback 6.44994 -0.0821564 -3.61099
upperback 0.506866 -0.340213 0.917916
thorax -3.06789 -0.116341 3.00972
lowerneck -15.2001 -2.67623 -8.72543
upperneck 19.443 -2.3579 3.64603
head 8.74152 -1.37512 2.39988
rclavicle -2.17421e-015 1.19271e-014
rhumerus -32.9671 -16.2666 -77.6417
rradius 27.4152
rwrist 11.0405
rhand -11.6738 11.7591
rfingers 7.12502
rthumb 14.3714 -17.7234
lclavicle -2.17421e-015 1.19271e-014
lhumerus -31.3266 17.5101 80.093
lradius 21.7709
lwrist -12.6063
lhand -13.4222 27.558
lfingers 7.12502
lthumb 12.6862 57.1527
rfemur -24.2011 -5.32842 16.6733
rtibia 71.2595
rfoot -2.95993 -3.47198
rtoes 1.22758
lfemur -8.63501 1.61828 -29.4083
ltibia 25.7838
lfoot -12.1365 -2.2127
ltoes 7.14991
35
root 1.37254 17.4658 -21.4641 -2.68544 -1.21414 4.27248
lowerback 6.40664 -0.174926 -3.97864
upperback 0.760779 -0.487529 0.822899
thorax -2.76698 -0.196344 3.12932
lowerneck -15.9573 -2.56754 -8.71415
upperneck 19.8639 -2.15766 3.7182
head 9.01035 -1.27308 2.4486
rclavicle 1.98785e-016 3.18055e-015
rhumerus -32.8669 -16.5602 -77.6016
rradius 27.4057
rwrist 10.8036
rhand -11.4758 11.4816
rfingers 7.12502
rthumb 14.5621 -17.9873
lclavicle 1.98785e-016 3.18055e-015
lhumerus -30.5274 16.3409 80.7874
lradius 21.9797
lwrist -10.5431
lhand -15.8772 27.6196
lfingers 7.12502
lthumb 10.3187 57.3464
rfemur -24.9902 -5.62686 16.1691
rtibia 70.5739
rfoot -4.32946 -3.16253
rtoes 0.377622
lfemur -8.2357 1.64031 -29.878
ltibia 26.3271
lfoot -12.8427 -2.26975
ltoes 6.80804
36
root 1.36865 17.4424 -21.3165 -2.77573 -0.878407 4.3934
lowerback 6.59791 -0.355939 -4.14234
upperback 0.934149 -0.74387 0.873862
thorax -2.67027 -0.327318 3.29749
lowerneck -16.8826 -2.46323 -9.13008
upperneck 20.3967 -1.89693 4.06494
head 9.3544 -1.14669 2.67526
rclavicle -5.71506e-016 1.11319e-014
rhumerus -32.8116 -16.2121 -77.7249
rradius 27.7127
rwrist 10.2752
rhand -11.5416 10.803
rfingers 7.12502
rthumb 14.4987 -18.6704
lclavicle -5.71506e-016 1.11319e-014
lhumerus -29.8624 16.2469 80.9948
lradius 22.2449
lwrist -10.6909
lhand -15.6488 26.5958
lfingers 7.12502
lthumb 10.5389 56.3116
rfemur -25.7243 -5.86176 16.0468
rtibia 69.6964
rfoot -5.64497 -2.83762
rtoes -1.49967
lfemur -7.83631 1.60211 -30.0113
ltibia 26.8371
lfoot -13.5491 -2.32846
ltoes 7.26112
37
root 1.35498 17.416 -21.1895 -2.64301 -0.464908 4.4006
lowerback 6.95247 -0.610086 -4.34411
upperback 0.766882 -1.11114 1.01212
thorax -3.00313 -0.496226 3.59561
lowerneck -16.7417 -2.43638 -9.23804
upperneck 20.2381 -1.80744 3.91265
head 9.26786 -1.12865 2.64961
rclavicle 8.4235e-015 7.95139e-016
rhumerus -33.2085 -15.3147 -77.8666
rradius 28.1717
rwrist 9.63732
rhand -11.6361 10.8633
rfingers 7.12502
rthumb 14.4076 -18.6166
lclavicle 8.4235e-015 7.95139e-016
lhumerus -29.4009 16.618 80.9196
lradius 22.0238
lwrist -10.8064
lhand -15.7973 24.9383
lfingers 7.12502
lthumb 10.3957 54.6613
rfemur -26.7892 -6.0743 16.1691
rtibia 68.7094
rfoot -6.62771 -2.52824
rtoes -4.02351
lfemur -7.74326 1.59156 -29.9646
ltibia 27.3159
lfoot -14.0461 -2.57659
ltoes 7.5968
38
root 1.34352 17.3882 -21.0623 -2.4562 -0.049042 4.54365
lowerback 7.11442 -0.779134 -4.66734
upperback 0.4706 -1.37303 1.04964
thorax -3.36861 -0.606562 3.84953
lowerneck -15.8106 -2.4214 -8.89791
upperneck 19.7927 -1.86137 3.45176
head 8.94056 -1.17711 2.42373
rclavicle -1.9456e-014 -1.27222e-014
rhumerus -33.8707 -14.8587 -77.795
rradius 28.2863
rwrist 9.40732
rhand -11.6573 11.1383
rfingers 7.12502
rthumb 14.3873 -18.3431
lclavicle -1.9456e-014 -1.27222e-014
lhumerus -29.1509 16.0573 80.9806
lradius 21.8897
lwrist -10.3785
lhand -15.8576 24.5695
lfingers 7.12502
lthumb 10.3375 54.2954
rfemur -27.8924 -6.31157 16.0975
rtibia 67.5839
rfoot -7.30775 -2.32288
rtoes -5.68352
lfemur -7.68184 1.3949 -30.0933
ltibia 27.7677
lfoot -14.5486 -2.70307
ltoes 7.64929
39
root 1.33887 17.3609 -20.9095 -2.51681 0.111153 4.75704
lowerback 7.11719 -0.789859 -4.88369
upperback 0.451836 -1.40779 0.976555
thorax -3.383 -0.620301 3.89915
lowerneck -15.578 -2.44655 -8.91382
upperneck 19.8726 -1.94692 3.58698
head 8.93216 -1.20733 2.46403
rclavicle -9.46712e-015 -1.74931e-014
rhumerus -34.326 -14.9429 -77.6913
rradius 28.3083
rwrist 9.14546
rhand -11.3369 11.2894
rfingers 7.12502
rthumb 14.6959 -18.1697
lclavicle -9.46712e-015 -1.74931e-014
lhumerus -28.7938 14.4166 81.4678
lradius 22.3539
lwrist -9.40471
lhand -15.6566 25.9194
lfingers 7.12502
lthumb 10.5314 55.6356
rfemur -28.5423 -6.32822 15.8937
rtibia 66.2416
rfoot -7.70943 -2.21899
rtoes -6.00588
lfemur -7.21597 1.38068 -30.3138
ltibia 28.108
lfoot -15.1753 -2.71323
ltoes 6.98092
40
root 1.3369 17.336 -20.7535 -2.60365 -0.00218858 4.93741
lowerback 7.0743 -0.780106 -5.09449
upperback 0.5867 -1.40673 0.969576
thorax -3.21403 -0.624543 4.0076
lowerneck -15.9531 -2.27687 -9.18552
upperneck 20.3294 -1.70033 3.99057
head 9.14608 -1.07468 2.68446
rclavicle 1.00386e-014 -2.46493e-014
rhumerus -34.4016 -14.9397 -77.6112
rradius 28.2801
rwrist 9.15267
rhand -10.894 11.8529
rfingers 7.12502
rthumb 15.1226 -17.5746
lclavicle 1.00386e-014 -2.46493e-014
lhumerus -28.34 13.4246 81.8557
lradius 22.8352
lwrist -9.01964
lhand -15.5723 26.7876
lfingers 7.12502
lthumb 10.6128 56.4996
rfemur -29.114 -6.15611 15.7425
rtibia 64.6907
rfoot -7.96773 -2.09515
rtoes -6.0131
lfemur -6.61651 1.47337 -30.51
ltibia 28.2242
lfoot -15.8314 -2.58796
ltoes 6.32381
41
root 1.3309 17.3245 -20.6093 -2.56546 -0.198764 4.90535
lowerback 7.13502 -0.76928 -5.17167
upperback 0.604717 -1.39778 1.07177
thorax -3.22589 -0.618497 4.15839
lowerneck -15.9862 -2.08149 -9.44606
upperneck 20.3692 -1.42929 4.3013
head 9.14931 -0.934694 2.87067
rclavicle 4.22417e-015 -1.90833e-014
rhumerus -34.5285 -14.849 -77.4672
rradius 28.2866
rwrist 9.58123
rhand -11.0991 12.3853
rfingers 7.12502
rthumb 14.9251 -17.057
lclavicle 4.22417e-015 -1.90833e-014
lhumerus -27.928 13.1521 82.0554
lradius 23.213
lwrist -9.59611
lhand -14.974 27.3047
lfingers 7.12502
lthumb 11.1899 56.9863
rfemur -29.7292 -5.81626 15.8587
rtibia 62.8874
rfoot -8.08438 -1.94057
rtoes -5.45852
lfemur -6.11725 1.46386 -30.4788
ltibia 28.1592
lfoot -16.316 -2.3612
ltoes 6.13314
42
root 1.32192 17.3203 -20.4641 -2.53432 -0.0140424 5.0095
lowerback 7.22902 -0.835089 -5.32546
upperback 0.62259 -1.50372 1.03457
thorax -3.24547 -0.669075 4.21848
lowerneck -16.153 -2.09331 -9.2639
upperneck 20.3973 -1.45906 4.22475
head 9.18954 -0.941919 2.81049
rclavicle 1.50579e-014 -9.54166e-015
rhumerus -34.6368 -15.1364 -77.37
rradius 28.0927
rwrist 10.0297
rhand -11.3908 13.7879
rfingers 7.12502
rthumb 14.644 -15.6751
lclavicle 1.50579e-014 -9.54166e-015
lhumerus -27.3908 12.6018 82.1133
lradius 23.7886
lwrist -10.8821
lhand -14.4874 27.5964
lfingers 7.12502
lthumb 11.6591 57.252
rfemur -30.1301 -5.7672 15.7732
rtibia 60.9102
rfoot -8.35451 -1.98597
rtoes -4.45287
lfemur -5.42339 1.41734 -30.5556
ltibia 27.9358
lfoot -16.7439 -2.39303
ltoes 6.35108
43
root 1.31122 17.3157 -20.3173 -2.47914 0.131906 5.17797
lowerback 7.09338 -0.864289 -5.53383
upperback 0.781441 -1.55024 0.955781
thorax -2.99575 -0.701401 4.25172
lowerneck -16.675 -2.19082 -9.05639
upperneck 20.5837 -1.57117 4.10358
head 9.35607 -0.990426 2.72204
rclavicle -1.53313e-014 9.54166e-015
rhumerus -34.5366 -15.377 -77.4248
rradius 27.9157
rwrist 10.0514
rhand -8.91687 5.05219
rfingers 7.12502
rthumb 17.0265 -24.2216
lclavicle -1.53313e-014 9.54166e-015
lhumerus -26.6392 11.848 82.2172
lradius 24.1171
lwrist -11.2344
lhand -15.7332 26.1527
lfingers 7.12502
lthumb 10.4575 55.8726
rfemur -30.4971 -5.58849 15.6129
rtibia 58.7538
rfoot -8.54682 -2.14223
rtoes -3.93881
lfemur -4.65677 1.31462 -30.7022
ltibia 27.5998
lfoot -17.1099 -2.35416
ltoes 6.57178
